<?xml version="1.0" encoding="UTF-8" standalone="no"?>
<!-- Created with Inkscape (http://www.inkscape.org/) -->
<svg
   xmlns:svg="http://www.w3.org/2000/svg"
   xmlns="http://www.w3.org/2000/svg"
   version="1.0"
   width="598.5"
   height="54.700001"
   id="svg2">
  <defs
     id="defs4">
    <clipPath
       id="clipPath2518">
      <path
         d="M 0.029999,841.98 L 595.05,841.98 L 595.05,0 L 0.029999,0 L 0.029999,841.98 z"
         id="path2520" />
    </clipPath>
    <clipPath
       id="clipPath2512">
      <path
         d="M -35.571,845.697 L 630.571,845.697 L 630.571,-4.697 L -35.571,-4.697 L -35.571,845.697 z"
         id="path2514" />
    </clipPath>
    <clipPath
       id="clipPath2506">
      <path
         d="M -35.511,845.743 L 630.609,845.743 L 630.609,-4.697 L -35.511,-4.697 L -35.511,845.743 z"
         id="path2508" />
    </clipPath>
    <clipPath
       id="clipPath2470">
      <path
         d="M 0.029999,841.98 L 595.05,841.98 L 595.05,0 L 0.029999,0 L 0.029999,841.98 z"
         id="path2472" />
    </clipPath>
    <clipPath
       id="clipPath2464">
      <path
         d="M -35.571,845.697 L 630.571,845.697 L 630.571,-4.697 L -35.571,-4.697 L -35.571,845.697 z"
         id="path2466" />
    </clipPath>
    <clipPath
       id="clipPath2458">
      <path
         d="M -35.511,845.743 L 630.609,845.743 L 630.609,-4.697 L -35.511,-4.697 L -35.511,845.743 z"
         id="path2460" />
    </clipPath>
  </defs>
  <g
     transform="translate(84.441481,-119.13099)"
     id="layer1">
    <g
       transform="matrix(1.9077717,0,0,1.9077717,-87.724361,-123.99984)"
       id="g2685">
      <path
         d="M 16.712056,141.35153 L 18.912056,141.35153 C 23.400806,141.35153 25.824556,140.37778 25.824556,137.35028 C 25.824556,135.06778 23.265806,133.60528 19.270806,133.60528 C 17.924556,133.60528 17.340806,133.68278 16.712056,133.70778 L 16.712056,141.35153 z M 10.967056,135.40153 C 10.967056,133.52903 9.1720557,133.45153 7.7795557,133.45153 L 6.9720557,133.45153 L 6.9720557,132.68278 C 8.4083057,132.68278 11.190806,132.78528 13.929556,132.78528 C 16.623306,132.78528 18.777056,132.68278 21.155806,132.68278 C 26.812056,132.68278 31.839556,133.55403 31.839556,137.19653 C 31.839556,139.50528 29.145806,140.91528 25.599556,141.71028 L 33.275806,148.27778 C 34.533306,149.35528 35.430806,149.66278 37.629556,149.81653 L 37.629556,150.58528 C 36.148306,150.58528 34.712056,150.48278 33.230806,150.48278 C 31.839556,150.48278 30.403306,150.58528 29.012056,150.58528 C 25.554556,147.99528 22.593306,145.22403 19.674556,142.27528 L 16.712056,142.27528 L 16.712056,147.76403 C 16.712056,149.73903 18.328306,149.81653 20.393306,149.81653 L 21.200806,149.81653 L 21.200806,150.58528 C 18.643306,150.58528 16.039556,150.48278 13.480806,150.48278 C 11.325806,150.48278 9.2158057,150.58528 6.9720557,150.58528 L 6.9720557,149.81653 L 7.7795557,149.81653 C 9.4408057,149.81653 10.967056,149.38028 10.967056,148.43028 L 10.967056,135.40153"
         id="path2619"
         style="fill:#a8996e;fill-opacity:1;fill-rule:nonzero;stroke:none" />
      <path
         d="M 46.898306,150.00903 L 47.369556,150.00903 C 48.582056,150.00903 49.860806,149.91278 49.860806,148.91278 L 49.860806,138.83153 C 49.860806,137.83028 48.582056,137.73528 47.369556,137.73528 L 46.898306,137.73528 L 46.898306,137.15778 C 48.212056,137.15778 50.230806,137.23403 51.880806,137.23403 C 53.564556,137.23403 55.584556,137.15778 57.167056,137.15778 L 57.167056,137.73528 L 56.695806,137.73528 C 55.483306,137.73528 54.204556,137.83028 54.204556,138.83153 L 54.204556,148.91278 C 54.204556,149.91278 55.483306,150.00903 56.695806,150.00903 L 57.167056,150.00903 L 57.165806,150.58528 C 55.550806,150.58528 53.530806,150.50778 51.847056,150.50778 C 50.198306,150.50778 48.212056,150.58528 46.898306,150.58528 L 46.898306,150.00903"
         id="path2621"
         style="fill:#a8996e;fill-opacity:1;fill-rule:nonzero;stroke:none" />
      <path
         d="M 91.135806,141.12028 C 90.192056,139.25403 88.643306,137.71528 83.594556,137.71528 C 78.073306,137.71528 75.177056,140.19778 75.177056,143.56403 C 75.177056,146.77653 78.039556,150.02778 84.402056,150.02778 C 88.004556,150.02778 90.394556,148.73903 91.269556,146.81528 L 92.212056,146.89153 C 91.774556,147.93153 91.538306,148.96903 91.370806,150.00903 C 89.417056,150.49028 86.758306,150.87403 83.660806,150.87403 C 76.087056,150.87403 70.464556,148.50778 70.464556,143.67903 C 70.464556,139.37028 76.558306,136.86903 83.492056,136.86903 C 87.432056,136.86903 88.710806,137.56153 91.875806,137.83028 C 91.842056,138.88903 91.909556,139.96653 92.144556,141.04403 L 91.135806,141.12028"
         id="path2623"
         style="fill:#a8996e;fill-opacity:1;fill-rule:nonzero;stroke:none" />
      <path
         d="M 111.40081,148.91278 C 111.40081,149.95028 112.81581,150.00903 114.02706,150.00903 L 114.66706,150.00903 L 114.66706,150.58528 C 113.18456,150.58528 111.03081,150.50778 109.21331,150.50778 C 107.49581,150.50778 105.47581,150.58528 104.12956,150.58528 L 104.12956,150.00903 L 104.60081,150.00903 C 105.81331,150.00903 107.09206,149.91278 107.09206,148.91278 L 107.09206,138.83153 C 107.09206,137.83028 105.81331,137.73528 104.60081,137.73528 L 104.12956,137.73528 L 104.12956,137.15778 C 105.47581,137.15778 107.49581,137.23403 109.21331,137.23403 C 111.03081,137.23403 113.18456,137.15778 114.66706,137.15778 L 114.66706,137.73528 L 114.02706,137.73528 C 112.81581,137.73528 111.40081,137.79278 111.40081,138.83153 L 111.40081,143.04403 L 123.62206,143.04403 L 123.62206,138.83153 C 123.62206,137.79278 122.20706,137.73528 120.99581,137.73528 L 120.35706,137.73528 L 120.35706,137.15778 C 121.83706,137.15778 123.99206,137.23403 125.80956,137.23403 C 127.52706,137.23403 129.54706,137.15778 130.89331,137.15778 L 130.89331,137.73528 L 130.42206,137.73528 C 129.21081,137.73528 127.93081,137.83028 127.93081,138.83153 L 127.93081,148.91278 C 127.93081,149.91278 129.21081,150.00903 130.42206,150.00903 L 130.89331,150.00903 L 130.89331,150.58528 C 129.54706,150.58528 127.52706,150.50778 125.80956,150.50778 C 123.99206,150.50778 121.83706,150.58528 120.35706,150.58528 L 120.35706,150.00903 L 120.99581,150.00903 C 122.20706,150.00903 123.62206,149.95028 123.62206,148.91278 L 123.62206,144.12153 L 111.40081,144.12153 L 111.40081,148.91278"
         id="path2625"
         style="fill:#a8996e;fill-opacity:1;fill-rule:nonzero;stroke:none" />
      <path
         d="M 142.94581,150.00903 L 143.41706,150.00903 C 144.62956,150.00903 145.90831,149.91278 145.90831,148.91278 L 145.90831,138.83153 C 145.90831,137.83028 144.62956,137.73528 143.41706,137.73528 L 142.94581,137.73528 L 142.94581,137.15778 C 144.99956,137.15778 148.50081,137.23403 151.32831,137.23403 C 154.15581,137.23403 157.65706,137.15778 159.94706,137.15778 C 159.87831,137.98528 159.91331,139.25403 160.01456,140.10153 L 159.00331,140.25528 C 158.83581,139.00403 158.43206,138.00403 154.89706,138.00403 L 150.21706,138.00403 L 150.21706,143.04403 L 154.22331,143.04403 C 156.24331,143.04403 156.68081,142.39028 156.88331,141.35153 L 157.89331,141.35153 C 157.82581,142.10153 157.79206,142.85153 157.79206,143.60153 C 157.79206,144.33403 157.82581,145.06403 157.89331,145.79528 L 156.88331,145.91028 C 156.68081,144.75653 156.58081,144.00653 154.25706,144.00653 L 150.21706,144.00653 L 150.21706,148.48903 C 150.21706,149.73903 152.16956,149.73903 154.32456,149.73903 C 158.36456,149.73903 160.14831,149.58528 161.15831,147.39278 L 162.10206,147.52653 C 161.66331,148.54653 161.25956,149.56653 160.95706,150.58528 C 158.80206,150.58528 154.93081,150.50778 151.90081,150.50778 C 148.87081,150.50778 144.86456,150.58528 142.94581,150.58528 L 142.94581,150.00903"
         id="path2627"
         style="fill:#a8996e;fill-opacity:1;fill-rule:nonzero;stroke:none" />
      <path
         d="M 189.43706,147.21903 L 197.41581,137.15778 C 198.42581,137.15778 199.63831,137.23403 200.84956,137.23403 C 202.02956,137.23403 203.24081,137.15778 204.41831,137.15778 L 204.41831,137.73528 L 204.11456,137.73528 C 203.10581,137.73528 201.05331,137.77278 200.98456,138.61903 C 200.95081,139.12028 201.08581,139.69653 201.15331,140.12028 L 202.43206,148.93153 C 202.56706,149.89278 203.40831,149.97028 205.42831,150.00903 L 205.42831,150.58528 C 203.84581,150.54778 202.19706,150.50778 200.58081,150.50778 C 198.72956,150.50778 196.87706,150.54778 195.02706,150.58528 L 195.02706,150.00903 C 196.77706,149.95028 197.92081,149.95028 197.92081,149.10403 C 197.92081,148.87278 197.92081,148.66153 197.88706,148.16278 L 196.94581,140.04278 L 196.87706,140.04278 L 188.29206,150.87403 L 187.48581,150.87403 L 179.33831,140.25528 L 179.27081,140.25528 L 178.12581,148.70028 C 178.12581,149.31528 178.39581,149.62278 178.83331,149.79778 C 179.33831,149.97028 180.04456,149.98903 180.98706,150.00903 L 181.39081,150.00903 L 181.39081,150.58528 C 179.87706,150.54778 178.32706,150.50778 176.81331,150.50778 C 175.49956,150.50778 174.15331,150.54778 172.84081,150.58528 L 172.84081,150.00903 L 173.31206,150.00903 C 175.97081,149.95028 176.07206,149.29653 176.37581,147.91153 L 177.38581,142.56403 C 177.65456,141.19778 177.78956,139.94778 177.78956,139.17778 C 177.78956,138.10028 176.34206,137.73528 174.86081,137.73528 L 174.42331,137.73528 L 174.42331,137.15778 C 175.80331,137.15778 177.14956,137.23403 178.52956,137.23403 C 179.53956,137.23403 180.54956,137.15778 181.55956,137.15778 L 189.43706,147.21903"
         id="path2629"
         style="fill:#a8996e;fill-opacity:1;fill-rule:nonzero;stroke:none" />
      <path
         d="M 228.35456,150.02778 C 234.88706,150.02778 236.03081,146.73903 236.03081,143.92903 C 236.03081,141.12028 233.37081,137.71528 227.78331,137.71528 C 221.89081,137.71528 220.14081,140.71653 220.14081,143.29403 C 220.14081,146.73903 222.90206,150.02778 228.35456,150.02778 z M 227.84956,136.86903 C 235.02081,136.86903 240.74456,139.40778 240.74456,143.50528 C 240.74456,147.93153 235.18956,150.87403 228.01831,150.87403 C 220.88206,150.87403 215.42706,148.10403 215.42706,143.96778 C 215.42706,139.96653 220.84706,136.86903 227.84956,136.86903"
         id="path2631"
         style="fill:#a8996e;fill-opacity:1;fill-rule:nonzero;stroke:none" />
      <path
         d="M 272.52456,146.79528 L 272.59206,146.75778 L 272.59206,139.54278 C 272.59206,137.96528 270.67206,137.73528 269.66206,137.73528 L 268.92206,137.73528 L 268.92206,137.15778 C 270.50456,137.15778 272.05331,137.23403 273.63581,137.23403 C 275.01581,137.23403 276.39581,137.15778 277.77581,137.15778 L 277.77581,137.73528 L 277.27081,137.73528 C 275.85706,137.73528 274.27456,137.88903 274.27456,140.17778 L 274.27456,148.93153 C 274.27456,149.60403 274.30831,150.27778 274.47706,150.87403 L 273.19831,150.87403 L 255.85956,139.83153 L 255.85956,147.75778 C 255.85956,149.43153 256.43206,150.00903 259.02456,150.00903 L 259.59706,150.00903 L 259.59706,150.58528 C 258.14956,150.58528 256.70081,150.50778 255.25456,150.50778 C 253.73956,150.50778 252.19081,150.58528 250.67581,150.58528 L 250.67581,150.00903 L 251.14706,150.00903 C 253.46956,150.00903 254.17706,149.10403 254.17706,147.56528 L 254.17706,139.46653 C 254.17706,138.38903 252.62831,137.73528 251.11331,137.73528 L 250.67581,137.73528 L 250.67581,137.15778 C 251.95456,137.15778 253.26706,137.23403 254.54706,137.23403 C 255.55706,137.23403 256.53331,137.15778 257.54331,137.15778 L 272.52456,146.79528"
         id="path2633"
         style="fill:#a8996e;fill-opacity:1;fill-rule:nonzero;stroke:none" />
      <path
         d="M 290.90581,138.12028 C 288.38081,138.12028 288.27956,138.46528 287.77456,139.87028 L 286.76456,139.87028 C 286.89956,139.33153 287.06706,138.79278 287.16956,138.23528 C 287.30331,137.69653 287.37081,137.15778 287.37081,136.60028 L 288.17831,136.60028 C 288.44831,137.17653 289.28956,137.15778 290.19831,137.15778 L 307.56956,137.15778 C 308.47956,137.15778 309.32081,137.13778 309.38831,136.56153 L 310.19581,136.63778 C 310.06206,137.15778 309.92581,137.67778 309.82581,138.19653 C 309.75831,138.71653 309.75831,139.23528 309.75831,139.75528 L 308.74831,139.96653 C 308.68081,139.25403 308.51331,138.12028 306.25706,138.12028 L 300.73581,138.12028 L 300.73581,148.35403 C 300.73581,149.83528 301.91456,150.00903 303.53081,150.00903 L 304.16956,150.00903 L 304.16956,150.58528 C 302.85581,150.58528 300.50081,150.50778 298.68206,150.50778 C 296.66206,150.50778 294.30581,150.58528 292.99331,150.58528 L 292.99331,150.00903 L 293.63206,150.00903 C 295.48456,150.00903 296.42706,149.91278 296.42706,148.39278 L 296.42706,138.12028 L 290.90581,138.12028"
         id="path2635"
         style="fill:#a8996e;fill-opacity:1;fill-rule:nonzero;stroke:none" />
      <path
         d="M 6.9625583,150.23355 C 6.9625583,150.06533 7.3116851,149.95059 8.0786298,149.86675 C 8.6924691,149.79965 9.4962548,149.66558 9.8648208,149.56882 C 11.107676,149.24252 11.087792,149.37865 11.031121,141.58607 L 10.980415,134.61389 L 10.563949,134.17076 C 10.092571,133.66921 8.9788012,133.33548 7.7763405,133.33548 C 7.1557798,133.33548 6.9625583,133.26889 6.9625583,133.05503 C 6.9625583,132.80276 7.9091423,132.78193 16.382201,132.84774 C 24.338596,132.90954 25.996019,132.96675 27.051844,133.21608 C 28.761676,133.61984 30.489244,134.52266 31.149124,135.35731 C 31.608499,135.93834 31.688749,136.19322 31.688749,137.07117 C 31.688749,137.87366 31.591394,138.24456 31.249962,138.74285 C 30.630674,139.64664 29.120898,140.58116 27.428492,141.10826 C 26.632046,141.35631 25.876432,141.59614 25.749339,141.64121 C 25.456317,141.74514 33.358367,148.52084 34.492396,149.13806 C 34.954664,149.38966 35.798951,149.65373 36.368582,149.72489 C 37.148592,149.82232 37.419108,149.93129 37.464366,150.1663 C 37.520214,150.45629 37.222307,150.47834 33.248001,150.47834 L 28.971542,150.47834 L 27.386698,149.2129 C 25.728551,147.88893 21.664842,144.24329 20.453103,142.99262 L 19.747223,142.26406 L 18.161855,142.26406 L 16.576489,142.26406 L 16.635596,145.47465 C 16.693851,148.6391 16.701221,148.69175 17.14848,149.13865 C 17.613985,149.60378 18.973049,149.93939 20.400058,149.94159 C 20.875789,149.94233 21.069701,150.02019 21.069701,150.21048 C 21.069701,150.44406 20.166923,150.47834 14.01613,150.47834 C 8.1607226,150.47834 6.9625583,150.43676 6.9625583,150.23355 L 6.9625583,150.23355 z M 22.037217,141.18172 C 23.541819,140.91922 24.628482,140.32818 25.262866,139.42729 C 25.715076,138.78509 25.795807,138.50273 25.79858,137.55348 C 25.802705,136.13912 25.262478,135.23956 23.996882,134.55338 C 22.461042,133.72068 19.648951,133.32401 17.43391,133.62761 L 16.605416,133.74117 L 16.605416,137.55619 L 16.605416,141.3712 L 18.778289,141.3712 C 19.973367,141.3712 21.439885,141.28593 22.037217,141.18172 L 22.037217,141.18172 z"
         id="path2665"
         style="fill:#a8996e;fill-opacity:1" />
      <path
         d="M 6.9625583,150.2383 C 6.9625583,150.07413 7.414253,149.93439 8.3917208,149.79616 C 10.376719,149.51544 10.840467,149.24597 10.98036,148.292 C 11.041664,147.87396 11.066755,144.63119 11.036117,141.08587 C 10.990657,135.82534 10.933546,134.58341 10.725564,134.33303 C 10.285694,133.80348 9.5334173,133.52313 8.2263083,133.40165 C 7.3056494,133.31609 6.9625583,133.21502 6.9625583,133.02939 C 6.9625583,132.63215 25.277662,132.79602 27.010069,133.20875 C 29.828246,133.88016 31.468828,135.07058 31.699942,136.61176 C 32.00411,138.64011 30.555149,140.11362 27.193342,141.19472 L 25.652885,141.6901 L 26.173799,142.17896 C 27.151246,143.09628 31.51273,146.84267 32.986816,148.03115 C 34.430212,149.19489 35.448364,149.65851 36.871746,149.80017 C 37.211587,149.834 37.427494,149.96703 37.465196,150.16584 C 37.520308,150.45644 37.223567,150.47834 33.231626,150.47834 L 28.938789,150.47834 L 27.175724,149.06018 C 25.532283,147.73824 20.870516,143.51053 20.104524,142.64738 C 19.804458,142.30925 19.576019,142.26406 18.167212,142.26406 L 16.57008,142.26406 L 16.635966,145.34441 C 16.680864,147.44329 16.776421,148.55761 16.935867,148.84167 C 17.256071,149.41214 18.048978,149.70471 19.685773,149.85636 C 20.682782,149.94874 21.069701,150.05361 21.069701,150.23146 C 21.069701,150.43742 19.900514,150.47834 14.01613,150.47834 C 8.228653,150.47834 6.9625583,150.43526 6.9625583,150.2383 z M 21.783987,141.18481 C 23.226546,140.95651 24.621957,140.29782 25.136033,139.60249 C 25.710985,138.82482 25.938292,137.60951 25.691842,136.63077 C 25.44321,135.64334 24.380683,134.63914 23.10388,134.18484 C 21.79703,133.71985 19.567123,133.46763 17.994082,133.60687 L 16.605416,133.7298 L 16.605416,137.55049 L 16.605416,141.3712 L 18.614344,141.36985 C 19.719255,141.36911 21.145594,141.28584 21.783987,141.18481 L 21.783987,141.18481 z"
         id="path2667"
         style="fill:#004564;fill-opacity:1" />
      <path
         d="M 46.962558,150.32521 C 46.962558,150.24099 47.464791,150.12129 48.07863,150.05922 C 48.971258,149.96897 49.275141,149.85463 49.596487,149.48811 C 49.993307,149.03552 49.998273,148.96609 49.998273,143.8712 C 49.998273,138.77631 49.993307,138.70688 49.596487,138.25428 C 49.275141,137.88777 48.971258,137.77343 48.07863,137.68317 C 45.615971,137.43416 47.228578,137.26406 52.051844,137.26406 C 55.325648,137.26406 57.14113,137.32776 57.14113,137.44263 C 57.14113,137.54084 56.879969,137.62312 56.560773,137.62546 C 55.623308,137.63234 54.57888,137.93481 54.333416,138.27051 C 54.160612,138.50682 54.105416,139.86279 54.105416,143.8712 C 54.105416,147.87961 54.160612,149.23557 54.333416,149.47188 C 54.57888,149.80759 55.623308,150.11006 56.560773,150.11694 C 56.879969,150.11928 57.14113,150.20156 57.14113,150.29977 C 57.14113,150.41464 55.325648,150.47834 52.051844,150.47834 C 49.252737,150.47834 46.962558,150.40943 46.962558,150.32521 z"
         id="path2669"
         style="fill:#004564;fill-opacity:1" />
      <path
         d="M 80.533987,150.64108 C 75.808273,150.16245 72.311808,148.47561 71.158273,146.11785 C 68.936719,141.57718 73.079791,137.82331 81.134826,137.07847 C 83.570059,136.85329 85.500737,136.94915 88.707505,137.45446 C 89.912773,137.64438 91.098041,137.79977 91.341434,137.79977 C 91.741362,137.79977 91.785005,137.87286 91.79463,138.5587 C 91.800487,138.97611 91.868112,139.69932 91.944898,140.16584 C 92.084094,141.01149 92.082969,141.01406 91.577112,141.01406 C 91.298023,141.01406 91.069701,140.94501 91.069701,140.86062 C 91.069701,140.52407 89.553326,139.01218 88.860451,138.65793 C 87.172755,137.79502 84.474898,137.46002 81.824094,137.78419 C 78.692219,138.16719 76.657701,139.33499 75.686951,141.30687 C 75.194023,142.30816 75.143719,142.55976 75.202773,143.72906 C 75.388505,147.40683 78.270398,149.60244 83.486666,150.0402 C 86.672523,150.30757 89.845076,149.22446 90.906469,147.50709 C 91.158934,147.0986 91.412809,146.90691 91.701344,146.90691 C 92.114451,146.90691 92.119237,146.92409 91.888184,147.57891 C 91.757791,147.94852 91.593398,148.59242 91.52288,149.00981 C 91.446755,149.4604 91.263773,149.83877 91.072451,149.94115 C 89.953166,150.54018 83.662773,150.95796 80.533987,150.64108 z"
         id="path2671"
         style="fill:#004564;fill-opacity:1" />
      <path
         d="M 104.28399,150.32284 C 104.28399,150.23731 104.75159,150.11442 105.32313,150.04976 C 107.25661,149.83101 107.14113,150.22348 107.14113,143.8712 C 107.14113,137.51892 107.25661,137.91138 105.32313,137.69263 C 102.98775,137.42842 104.57525,137.26406 109.46256,137.26406 C 114.38013,137.26406 116.04949,137.43804 113.45583,137.68024 C 111.38579,137.87354 111.19067,138.19709 111.2837,141.28191 L 111.33756,143.06763 L 117.49827,143.06763 L 123.65899,143.06763 L 123.7089,140.90644 C 123.75174,139.05246 123.71367,138.68949 123.44106,138.35298 C 123.09976,137.93166 122.1057,137.63233 121.02506,137.62546 C 120.65676,137.62312 120.35542,137.54084 120.35542,137.44263 C 120.35542,137.32761 122.23042,137.26406 125.62327,137.26406 C 129.01613,137.26406 130.89113,137.32761 130.89113,137.44263 C 130.89113,137.54084 130.62997,137.62312 130.31077,137.62546 C 129.37331,137.63234 128.32888,137.93481 128.08342,138.27051 C 127.91059,138.50682 127.85542,139.86279 127.85542,143.8712 C 127.85542,147.87961 127.91061,149.23557 128.08342,149.47188 C 128.32886,149.80759 129.37331,150.11006 130.31077,150.11694 C 130.62997,150.11928 130.89113,150.20156 130.89113,150.29977 C 130.89113,150.41478 129.01613,150.47834 125.62327,150.47834 C 122.23042,150.47834 120.35542,150.41478 120.35542,150.29977 C 120.35542,150.20156 120.65676,150.11928 121.02506,150.11694 C 122.10051,150.1101 123.09918,149.81141 123.43577,149.39594 C 123.69992,149.0699 123.74827,148.62599 123.74827,146.52767 L 123.74827,144.04514 L 117.54292,144.0921 L 111.33756,144.13906 L 111.28406,146.19263 C 111.19577,149.58381 111.35408,149.86589 113.45583,150.06216 C 116.04949,150.30436 114.38013,150.47834 109.46256,150.47834 C 106.61434,150.47834 104.28399,150.40836 104.28399,150.32284 L 104.28399,150.32284 z"
         id="path2673"
         style="fill:#004564;fill-opacity:1" />
      <path
         d="M 143.0055,150.32521 C 143.0055,150.24099 143.48658,150.12179 144.07457,150.06034 C 145.28004,149.93434 145.79443,149.68247 145.93802,149.14791 C 145.9921,148.94661 146.03744,146.5163 146.03878,143.74723 C 146.04119,138.77921 146.03589,138.70647 145.63943,138.25428 C 145.31808,137.88777 145.0142,137.77343 144.12157,137.68317 C 141.31391,137.39928 143.66166,137.26406 151.39836,137.26406 L 159.79122,137.26406 L 159.79122,137.86413 C 159.79122,138.19417 159.8432,138.84351 159.90675,139.3071 L 160.02228,140.14999 L 159.50496,140.09095 C 159.12968,140.04812 158.9722,139.92327 158.93138,139.63622 C 158.8576,139.1174 157.98552,138.39633 157.15174,138.16477 C 156.78649,138.06333 155.0613,137.97988 153.318,137.97934 L 150.14836,137.97834 L 150.14836,140.58934 L 150.14836,143.20034 L 152.8906,143.12666 C 155.92025,143.04526 156.33806,142.9147 156.74977,141.92074 C 156.91225,141.52849 157.09699,141.3712 157.39525,141.3712 C 157.81266,141.3712 157.81307,141.37356 157.77537,143.5587 C 157.73905,145.66459 157.72295,145.74829 157.34391,145.80221 C 157.03054,145.84678 156.91958,145.74016 156.80031,145.27988 C 156.51588,144.18221 156.0522,144.01834 152.9344,143.91355 L 150.14836,143.81992 L 150.14836,146.3386 C 150.14836,148.68457 150.17464,148.88177 150.53163,149.21436 C 151.07067,149.71655 152.03878,149.81683 155.46277,149.72511 C 158.95274,149.63163 159.6071,149.44157 160.65343,148.21746 C 161.14471,147.64272 161.41351,147.45965 161.63905,147.5462 C 161.80961,147.61165 161.91135,147.75575 161.86512,147.86641 C 161.8189,147.97708 161.59878,148.61004 161.37599,149.27298 L 160.97092,150.47834 L 151.98821,150.47834 C 147.04772,150.47834 143.0055,150.40943 143.0055,150.32521 z"
         id="path2675"
         style="fill:#004564;fill-opacity:1" />
      <path
         d="M 183.44088,145.4911 C 181.19036,142.55169 179.31454,140.1812 179.2724,140.22335 C 179.23025,140.2655 178.93022,142.2486 178.60567,144.63023 C 178.02985,148.85567 178.02348,148.97129 178.34228,149.40691 C 178.67864,149.86652 179.43992,150.0911 180.72872,150.11091 C 181.09702,150.11657 181.39836,150.20156 181.39836,150.29977 C 181.39836,150.41386 179.85074,150.47834 177.11264,150.47834 C 174.59608,150.47834 172.82693,150.40993 172.82693,150.31262 C 172.82693,150.22147 173.28898,150.09529 173.85372,150.03223 C 175.16646,149.88562 175.72399,149.66994 176.02143,149.19366 C 176.33333,148.69422 177.61948,142.04553 177.75917,140.21048 C 177.86296,138.84709 177.84745,138.76294 177.41925,138.36615 C 177.10425,138.07425 176.59273,137.8919 175.70233,137.75407 C 175.00478,137.64611 174.43407,137.49168 174.43407,137.41091 C 174.43407,137.33014 176.03686,137.26406 177.99582,137.26406 L 181.55757,137.26406 L 185.45118,142.25619 C 187.59266,145.00187 189.38497,147.24851 189.43407,147.24873 C 189.48318,147.24895 191.29122,145.00584 193.45193,142.26406 L 197.3805,137.27898 L 200.90729,137.27152 C 204.38932,137.26415 205.51436,137.4612 203.29089,137.689 C 201.85764,137.83584 201.08198,138.10106 200.96491,138.48434 C 200.91489,138.648 201.22288,141.14748 201.64925,144.03872 C 202.53329,150.03314 202.44125,149.82135 204.25332,150.03166 C 206.63652,150.30826 205.10748,150.47834 200.23764,150.47834 C 195.3678,150.47834 193.83877,150.30826 196.22197,150.03166 C 196.81809,149.96247 197.46986,149.76594 197.68743,149.58976 L 198.07927,149.27246 L 197.56911,144.74147 C 197.28852,142.24943 197.01077,140.15619 196.95188,140.08984 C 196.89298,140.02349 194.91622,142.41104 192.55907,145.39552 C 189.44427,149.33931 188.17218,150.82371 187.90304,150.82866 C 187.62454,150.83379 186.51817,149.51037 183.44088,145.4911 L 183.44088,145.4911 z"
         id="path2677"
         style="fill:#004564;fill-opacity:1" />
      <path
         d="M 225.32693,150.63156 C 223.17811,150.41003 221.18068,149.86862 219.52336,149.05845 C 217.64416,148.13983 216.724,147.32403 216.05341,145.98206 C 213.48205,140.83633 220.84102,136.19986 230.1887,137.07621 C 236.84491,137.70024 240.95361,140.37434 240.63611,143.87581 C 240.31384,147.42976 236.37002,150.02216 230.32693,150.65238 C 228.38384,150.85502 227.45718,150.85116 225.32693,150.63155 L 225.32693,150.63156 z M 231.57693,149.72459 C 234.53339,149.01733 236.17193,146.8347 236.01064,143.81862 C 235.92804,142.2743 235.45188,141.2211 234.31477,140.06773 C 232.48339,138.21018 229.3705,137.34364 226.11732,137.78582 C 224.21591,138.04427 222.81722,138.58826 221.83802,139.45017 C 220.54857,140.58517 220.24263,141.32905 220.23993,143.33548 C 220.23788,144.85975 220.29073,145.13667 220.76068,146.06416 C 221.04834,146.6319 221.66045,147.4488 222.12089,147.87949 C 223.42125,149.09581 224.58002,149.59204 227.11264,150.01713 C 227.7892,150.13068 230.66797,149.94204 231.57693,149.7246 L 231.57693,149.72459 z"
         id="path2679"
         style="fill:#004564;fill-opacity:1" />
      <path
         d="M 264.96979,145.55459 C 260.40282,142.65012 256.48541,140.15721 256.26443,140.01478 L 255.86264,139.75582 L 255.86264,144.30355 C 255.86264,148.77824 255.86918,148.85887 256.26925,149.32399 C 256.61145,149.72182 256.90847,149.82741 258.14425,149.99057 C 258.95186,150.09719 259.61264,150.25056 259.61264,150.33139 C 259.61264,150.41221 257.60372,150.47834 255.14836,150.47834 C 250.89275,150.47834 249.48513,150.30297 251.71538,150.05065 C 253.09038,149.89509 253.82522,149.43139 254.06498,148.56799 C 254.3213,147.64494 254.31847,139.3225 254.06166,138.84266 C 253.82138,138.39374 252.65638,137.86972 251.53229,137.70497 C 249.75139,137.44395 250.81497,137.26406 254.13909,137.26406 L 257.59413,137.26406 L 264.89802,141.96155 C 268.91518,144.54517 272.30238,146.71956 272.42514,146.79352 C 272.60104,146.89948 272.64836,146.0934 272.64836,142.9917 L 272.64836,139.05541 L 272.154,138.50212 C 271.73854,138.03715 271.4535,137.91637 270.36829,137.74549 C 269.65804,137.63365 269.07693,137.47958 269.07693,137.4031 C 269.07693,137.32663 271.0055,137.26406 273.36264,137.26406 C 277.49566,137.26406 278.81814,137.44272 276.56879,137.69721 C 275.73863,137.79113 275.35704,137.93745 274.917,138.33062 L 274.34479,138.8419 L 274.34479,144.83869 L 274.34479,150.83548 L 273.80907,150.83546 C 273.41313,150.83544 271.10698,149.45767 264.96979,145.55459 L 264.96979,145.55459 z"
         id="path2681"
         style="fill:#004564;fill-opacity:1" />
      <path
         d="M 293.0055,150.32567 C 293.0055,150.2417 293.56391,150.12618 294.24639,150.06896 C 294.92889,150.01175 295.64938,149.87819 295.84748,149.77217 C 296.48248,149.43234 296.58493,148.44218 296.53509,143.12741 L 296.48764,138.06763 L 292.80255,138.07845 C 288.72579,138.09042 288.3433,138.18256 287.97413,139.24156 C 287.84095,139.62362 287.6767,139.76406 287.36304,139.76406 C 286.85259,139.76406 286.85952,139.85131 287.23234,138.11635 C 287.55891,136.59662 287.67923,136.50387 288.67786,137.00204 C 289.15461,137.23989 290.51386,137.26913 299.05363,137.22526 C 306.62193,137.18638 308.93202,137.12346 309.10384,136.95156 C 309.22652,136.82879 309.50614,136.72834 309.72518,136.72834 C 310.08941,136.72834 310.10923,136.77781 309.95732,137.30752 C 309.86597,137.62607 309.78998,138.20866 309.78848,138.60216 C 309.78527,139.4435 309.65223,139.69784 309.16622,139.79176 C 308.90141,139.84293 308.76291,139.72564 308.6305,139.33807 C 308.53229,139.05058 308.22505,138.64712 307.94777,138.44149 C 307.48618,138.09921 307.15807,138.06223 304.06384,138.00373 L 300.68407,137.93983 L 300.68407,143.45507 C 300.68407,148.01487 300.72948,149.03513 300.9462,149.34454 C 301.22988,149.74954 302.42407,150.1212 303.44172,150.1212 C 303.79111,150.1212 304.07693,150.20156 304.07693,150.29977 C 304.07693,150.41498 302.11264,150.47834 298.54122,150.47834 C 295.49657,150.47834 293.0055,150.40964 293.0055,150.32567 L 293.0055,150.32567 z"
         id="path2683"
         style="fill:#004564;fill-opacity:1" />
    </g>
  </g>
</svg>
